<svg xmlns="http://www.w3.org/2000/svg" viewBox="0 0 47 43" width="47" height="43">
	<style>
		tspan { white-space:pre }
		.shp0 { fill: #aaaaaa } 
	</style>
	<g id="categories">
		<path id="add_photo" class="shp0" d="M7 7L7 1L11 1L11 7L17 7L17 11L11 11L11 17L7 17L7 11L1 11L1 7L7 7ZM13 19L13 13L19 13L19 7L33 7L36.66 11L43 11C45.2 11 47 12.8 47 15L47 39C47 41.2 45.2 43 43 43L11 43C8.8 43 7 41.2 7 39L7 19L13 19ZM27 37C32.52 37 37 32.52 37 27C37 21.48 32.52 17 27 17C21.48 17 17 21.48 17 27C17 32.52 21.48 37 27 37ZM20.6 27C20.6 30.54 23.46 33.4 27 33.4C30.54 33.4 33.4 30.54 33.4 27C33.4 23.46 30.54 20.6 27 20.6C23.46 20.6 20.6 23.46 20.6 27Z" />
	</g>
</svg>